<svg width="22" height="22" viewBox="0 0 22 22" fill="none" xmlns="http://www.w3.org/2000/svg">
<path fill-rule="evenodd" clip-rule="evenodd" d="M7.00202 7.00202C8.06235 5.94169 9.50046 5.346 11 5.346C12.4995 5.346 13.9376 5.94169 14.998 7.00202C16.0583 8.06235 16.654 9.50047 16.654 11C16.654 12.4995 16.0583 13.9377 14.998 14.998C13.9376 16.0583 12.4995 16.654 11 16.654C9.50046 16.654 8.06235 16.0583 7.00202 14.998C5.94169 13.9377 5.346 12.4995 5.346 11C5.346 9.50047 5.94169 8.06235 7.00202 7.00202ZM9.59542 14.3909C10.0407 14.5754 10.518 14.6703 11 14.6703C11.9734 14.6703 12.907 14.2836 13.5953 13.5953C14.2836 12.907 14.6703 11.9734 14.6703 11C14.6703 10.0266 14.2836 9.09301 13.5953 8.40469C12.907 7.71636 11.9734 7.32967 11 7.32967C10.518 7.32967 10.0407 7.42461 9.59542 7.60906C9.15012 7.79351 8.7455 8.06386 8.40468 8.40469C8.06386 8.74551 7.79351 9.15012 7.60905 9.59543C7.4246 10.0407 7.32967 10.518 7.32967 11C7.32967 11.482 7.4246 11.9593 7.60905 12.4046C7.79351 12.8499 8.06386 13.2545 8.40468 13.5953C8.7455 13.9361 9.15012 14.2065 9.59542 14.3909Z" fill="black"/>
<path d="M17.9074 6.18838C18.1581 5.93774 18.2989 5.5978 18.2989 5.24334C18.2989 4.88888 18.1581 4.54893 17.9074 4.29829C17.6568 4.04765 17.3168 3.90684 16.9624 3.90684C16.6079 3.90684 16.268 4.04765 16.0173 4.29829C15.7667 4.54893 15.6259 4.88888 15.6259 5.24334C15.6259 5.5978 15.7667 5.93774 16.0173 6.18838C16.268 6.43903 16.6079 6.57984 16.9624 6.57984C17.3168 6.57984 17.6568 6.43903 17.9074 6.18838Z" fill="black"/>
<path fill-rule="evenodd" clip-rule="evenodd" d="M6.46507 0.0659999C7.6384 0.0124667 8.0124 0 11 0C13.9883 0 14.3616 0.0131999 15.5342 0.0659999C16.7053 0.119533 17.5061 0.306533 18.2057 0.577133C18.9394 0.853496 19.6041 1.28643 20.1535 1.8458C20.713 2.3953 21.146 3.06025 21.4221 3.79427C21.6942 4.49387 21.8805 5.29393 21.934 6.46507C21.9875 7.6384 22 8.0124 22 11C22 13.9876 21.9875 14.3616 21.934 15.5349C21.8805 16.7061 21.6942 17.5061 21.4229 18.2057C21.1465 18.9394 20.7136 19.6041 20.1542 20.1535C19.6042 20.7137 18.9391 21.1464 18.2057 21.4221C17.5061 21.6942 16.7061 21.8805 15.5349 21.934C14.3616 21.9875 13.9876 22 11 22C8.0124 22 7.6384 21.9875 6.46507 21.934C5.29393 21.8805 4.49387 21.6942 3.79427 21.4229C3.06057 21.1465 2.39591 20.7136 1.84653 20.1542C1.28627 19.6042 0.8536 18.9391 0.577867 18.2057C0.3058 17.5061 0.119533 16.7061 0.0659999 15.5349C0.0124667 14.3616 0 13.9883 0 11C0 8.01167 0.0131999 7.6384 0.0659999 6.4658C0.119533 5.29467 0.306533 4.49387 0.577133 3.79427C0.853496 3.06056 1.28643 2.3959 1.8458 1.84653C2.3958 1.28627 3.06093 0.8536 3.79427 0.577867C4.49387 0.3058 5.29393 0.119533 6.46507 0.0659999ZM15.4455 2.046C14.2853 1.9932 13.937 1.9822 11 1.9822C8.063 1.9822 7.71467 1.9932 6.55453 2.046C5.4824 2.09513 4.90013 2.27407 4.5122 2.42513C4.03437 2.60112 3.60209 2.88203 3.2472 3.2472C2.86293 3.6322 2.62387 3.99887 2.42513 4.5122C2.27333 4.90013 2.09513 5.4824 2.046 6.55453C1.9932 7.71467 1.9822 8.063 1.9822 11C1.9822 13.937 1.9932 14.2853 2.046 15.4455C2.09513 16.5176 2.27407 17.0999 2.42513 17.4878C2.60123 17.9656 2.88213 18.3978 3.2472 18.7528C3.60214 19.1179 4.0344 19.3988 4.5122 19.5749C4.90013 19.7267 5.4824 19.9049 6.55453 19.954C7.71467 20.0068 8.06227 20.0178 11 20.0178C13.9377 20.0178 14.2853 20.0068 15.4455 19.954C16.5176 19.9049 17.0999 19.7259 17.4878 19.5749C17.9656 19.3989 18.3979 19.118 18.7528 18.7528C19.1179 18.3979 19.3988 17.9656 19.5749 17.4878C19.7267 17.0999 19.9049 16.5176 19.954 15.4455C20.0068 14.2853 20.0178 13.937 20.0178 11C20.0178 8.063 20.0068 7.71467 19.954 6.55453C19.9049 5.4824 19.7259 4.90013 19.5749 4.5122C19.3761 3.99887 19.1378 3.6322 18.7528 3.2472C18.3678 2.86293 18.0011 2.62387 17.4878 2.42513C17.0999 2.27333 16.5176 2.09513 15.4455 2.046Z" fill="black"/>
</svg>
